<?xml version="1.0" standalone="no"?>
<!DOCTYPE svg PUBLIC "-//W3C//DTD SVG 20010904//EN"
 "http://www.w3.org/TR/2001/REC-SVG-20010904/DTD/svg10.dtd">
<svg version="1.0" xmlns="http://www.w3.org/2000/svg"
 width="604.000000pt" height="640.000000pt" viewBox="0 0 604.000000 640.000000"
 preserveAspectRatio="xMidYMid meet">

<g transform="translate(0.000000,640.000000) scale(0.100000,-0.100000)"
fill="#000000" stroke="none">
<path d="M2965 6213 c-11 -3 -24 -9 -29 -14 -6 -5 -18 -9 -27 -9 -9 0 -22 -7
-29 -15 -7 -8 -23 -15 -36 -15 -12 0 -29 -8 -36 -19 -10 -13 -24 -18 -53 -17
-29 1 -40 -3 -43 -15 -4 -19 66 -55 111 -58 16 0 41 -8 55 -16 15 -9 47 -21
72 -28 66 -19 57 -34 -32 -52 -31 -6 -61 -32 -55 -49 10 -30 178 -1 248 43 36
22 58 30 72 25 12 -4 124 -109 248 -233 l227 -226 13 -190 c17 -240 17 -346 1
-515 -14 -135 -43 -234 -66 -227 -6 2 -29 30 -51 64 -22 33 -58 81 -78 107
-41 49 -57 90 -57 146 0 50 -94 137 -265 245 -40 26 -131 26 -210 1 -64 -20
-125 -60 -125 -81 0 -7 -9 -19 -21 -26 -20 -14 -27 -35 -52 -161 -8 -45 -8
-66 3 -100 25 -76 39 -90 182 -171 26 -15 53 -39 60 -53 7 -14 34 -38 60 -52
44 -25 47 -26 66 -9 35 32 145 5 204 -51 42 -39 46 -78 12 -113 -15 -16 -32
-29 -36 -29 -5 0 -26 -14 -47 -30 -21 -17 -67 -38 -108 -50 -39 -11 -110 -38
-159 -61 -135 -62 -176 -77 -323 -115 -194 -51 -287 -71 -363 -79 -101 -10
-195 -28 -388 -74 -96 -24 -218 -46 -271 -50 -88 -7 -102 -11 -150 -43 -30
-20 -84 -54 -121 -76 -36 -22 -76 -49 -88 -59 -63 -51 -180 -158 -180 -164 0
-21 36 -13 87 20 86 55 87 56 79 42 -9 -14 -46 -165 -46 -187 0 -39 58 6 173
134 16 18 36 32 45 32 10 0 51 33 91 73 l75 72 280 1 c324 2 402 7 506 34 41
11 116 29 165 40 50 11 108 25 130 30 295 72 364 85 455 85 90 0 99 -2 170
-37 41 -21 93 -48 116 -62 144 -86 224 -139 261 -175 49 -48 103 -151 103
-195 0 -38 -34 -96 -56 -96 -21 0 -141 -89 -207 -153 -64 -63 -247 -351 -348
-548 l-21 -42 36 7 35 7 -14 -34 c-8 -19 -11 -37 -8 -41 4 -3 -1 -6 -10 -6
-18 0 -23 -15 -7 -25 5 -3 7 -12 4 -20 -5 -13 -10 -13 -34 0 -32 16 -60 20
-60 7 0 -5 13 -21 30 -37 16 -15 27 -32 24 -37 -9 -15 28 -37 62 -38 16 0 39
-7 50 -15 18 -13 16 -14 -21 -15 -22 0 -82 -7 -133 -14 -153 -24 -201 -43
-317 -126 -177 -126 -272 -188 -307 -199 -21 -7 -38 -17 -38 -22 0 -14 -62
-11 -79 5 -9 8 -37 17 -63 21 -49 7 -57 3 -114 -66 -6 -8 -35 -32 -64 -54
-166 -126 -179 -141 -166 -207 10 -57 28 -73 79 -72 71 1 139 23 167 54 35 38
60 49 167 76 85 21 205 75 243 109 22 20 188 96 290 133 141 51 308 91 408 97
50 3 104 10 118 15 14 6 27 10 30 10 2 0 4 -42 4 -93 0 -115 -16 -172 -85
-302 -73 -137 -88 -198 -82 -321 3 -55 12 -148 21 -209 32 -217 32 -235 0
-280 l-29 -40 2 -180 c5 -388 38 -489 153 -471 45 7 81 49 105 123 22 70 22
124 2 185 -19 53 -20 90 -14 413 5 262 17 366 62 547 14 54 34 115 44 135 80
153 111 225 136 318 8 33 28 97 43 143 25 79 28 83 52 79 14 -3 54 -2 89 2 36
4 85 4 109 -1 71 -13 135 -13 140 0 2 7 26 12 59 12 39 0 54 4 51 13 -3 6 -17
13 -33 15 l-28 4 28 14 c15 8 38 14 51 14 12 0 26 5 29 10 3 6 22 10 41 10 38
0 47 17 12 22 -20 3 -22 8 -18 38 7 51 6 163 -4 450 -13 335 -13 355 3 490 8
65 14 217 15 350 0 231 0 237 -28 320 -31 96 -40 133 -57 239 -11 69 -15 79
-61 128 -28 29 -72 66 -99 84 -67 43 -154 166 -170 239 -57 269 -59 284 -59
465 -1 99 -5 216 -10 260 -5 44 -14 127 -19 185 -6 58 -19 123 -28 144 -22 51
-171 175 -361 304 -79 53 -181 124 -225 157 -63 46 -95 63 -140 72 -32 7 -72
19 -89 27 -35 18 -85 26 -113 19z m365 -3723 c0 -5 -8 -10 -17 -10 -15 0 -16
2 -3 10 19 12 20 12 20 0z m-88 -84 c5 3 4 11 -2 19 -21 26 -1 35 36 17 28
-13 35 -21 31 -39 -3 -19 -1 -21 14 -13 10 6 27 10 38 10 13 0 21 9 26 30 4
17 13 30 21 30 18 0 13 -23 -18 -84 -21 -41 -19 -40 -113 -22 -11 2 -27 4 -35
5 -8 0 -40 24 -70 51 l-55 51 59 -30 c32 -17 63 -28 68 -25z m778 -6 c0 -22
16 -27 23 -7 3 7 9 0 16 -15 8 -23 17 -28 44 -28 32 0 32 -1 29 -39 -2 -21 2
-49 9 -62 14 -27 20 -67 14 -90 -7 -23 -292 -22 -286 1 26 103 52 194 57 199
3 3 12 -2 19 -12 12 -17 14 -16 20 15 4 18 12 39 17 46 16 19 38 14 38 -8z
m100 -15 c11 -13 8 -15 -15 -15 -23 0 -26 2 -15 15 7 8 14 15 15 15 1 0 8 -7
15 -15z m214 -90 c3 -9 0 -15 -9 -15 -8 0 -15 7 -15 15 0 8 4 15 9 15 5 0 11
-7 15 -15z m-64 -45 c18 -25 25 -28 41 -20 11 6 24 8 29 5 21 -13 8 -23 -37
-30 -106 -15 -119 -26 -50 -42 l42 -11 -51 -1 -51 -1 -7 47 c-7 53 -2 65 18
38 12 -17 13 -16 19 14 8 39 20 39 47 1z"/>
</g>
</svg>
