<?xml version="1.0" standalone="no"?>
<!DOCTYPE svg PUBLIC "-//W3C//DTD SVG 20010904//EN"
 "http://www.w3.org/TR/2001/REC-SVG-20010904/DTD/svg10.dtd">
<svg version="1.0" xmlns="http://www.w3.org/2000/svg"
 width="800.000000pt" height="600.000000pt" viewBox="0 0 800.000000 600.000000"
 preserveAspectRatio="xMidYMid meet">

<g transform="translate(0.000000,600.000000) scale(0.100000,-0.100000)"
fill="#000000" stroke="none">
<path d="M1340 3505 l-505 -505 507 -507 508 -508 372 372 c205 204 436 432
513 508 l140 136 -507 505 c-279 277 -510 504 -515 504 -4 0 -235 -227 -513
-505z"/>
<path d="M5132 3338 c3 -561 4 -607 22 -655 10 -29 33 -66 50 -84 51 -52 86
-62 239 -67 l137 -4 0 79 0 79 -57 17 c-86 25 -117 48 -131 94 -9 29 -12 192
-12 592 l0 551 -125 0 -126 0 3 -602z"/>
<path d="M6592 3884 c-101 -52 -126 -173 -51 -250 103 -106 269 -36 269 114 0
42 -42 112 -79 132 -38 20 -104 22 -139 4z"/>
<path d="M5779 3843 c22 -27 74 -84 115 -128 l75 -80 1 128 0 127 -116 0 -116
0 41 -47z"/>
<path d="M3449 3840 c-67 -11 -115 -37 -153 -82 -60 -70 -61 -77 -61 -678 l0
-545 123 -3 122 -3 0 264 0 264 38 7 c20 3 91 6 157 6 66 0 171 3 233 7 l113
6 -3 101 -3 101 -255 8 c-140 4 -261 10 -268 12 -11 4 -13 34 -10 136 4 183
-23 169 334 169 l284 0 0 104 0 103 -77 6 c-43 4 -161 9 -263 12 -102 3 -203
7 -225 9 -22 2 -61 0 -86 -4z"/>
<path d="M5720 3187 l0 -657 125 0 125 0 0 521 0 522 -107 116 c-59 64 -115
125 -125 136 -17 19 -18 -3 -18 -638z"/>
<path d="M6122 3834 c224 -367 387 -648 380 -658 -5 -6 -85 -139 -177 -296
-92 -157 -176 -300 -187 -317 l-20 -33 243 0 242 0 -23 25 c-20 22 -32 25 -88
25 -51 0 -63 3 -59 14 3 8 49 92 101 187 53 95 97 178 99 183 3 6 7 9 10 6 6
-6 217 -381 217 -386 0 -2 -28 -4 -63 -4 -55 0 -67 -3 -87 -25 l-23 -25 236 0
c130 0 237 3 237 6 0 4 -38 70 -84 148 -46 77 -132 223 -191 324 l-107 182
179 298 c99 164 189 311 199 327 10 16 14 26 7 22 -7 -4 -126 -104 -264 -222
-139 -119 -256 -214 -260 -213 -5 2 -115 95 -245 208 -235 203 -283 242 -272
224z"/>
<path d="M4411 3479 c-113 -22 -178 -81 -214 -194 -20 -63 -22 -91 -22 -280 0
-191 2 -217 23 -283 38 -121 102 -175 228 -193 84 -12 377 4 472 26 l72 17 0
85 0 85 -27 -6 c-16 -3 -109 -9 -208 -12 -258 -8 -303 10 -313 131 l-4 55 186
0 c213 0 259 8 315 57 64 55 85 153 61 297 -21 130 -81 194 -204 215 -72 13
-301 13 -365 0z m283 -190 c45 -21 64 -136 29 -178 -17 -19 -30 -21 -161 -23
l-142 -3 0 60 c0 70 23 124 60 142 31 16 181 17 214 2z"/>
<path d="M5348 2404 c-55 -17 -90 -57 -108 -122 -34 -130 100 -249 227 -201
29 11 73 47 73 60 0 18 -35 17 -62 -2 -58 -41 -143 -21 -175 42 -30 58 -7 146
47 174 50 26 122 13 150 -26 3 -4 14 -1 24 7 19 14 19 14 -3 37 -21 23 -82 48
-112 46 -8 0 -35 -7 -61 -15z"/>
<path d="M3272 2243 c3 -166 3 -168 26 -171 21 -3 22 -1 22 78 l0 81 96 -3 97
-3 1 -75 c1 -69 3 -75 23 -78 22 -3 22 -2 25 167 l3 171 -28 0 -28 0 2 -67 3
-68 -97 -3 -97 -3 0 71 c0 68 -1 70 -25 70 l-25 0 2 -167z"/>
<path d="M3652 2243 l3 -168 113 -3 112 -3 0 26 c0 25 0 25 -91 25 l-90 0 3
51 3 51 85 2 c78 1 85 3 85 21 0 18 -8 20 -88 23 l-88 3 3 47 3 47 88 3 c79 3
87 5 87 22 0 19 -7 20 -115 20 l-115 0 2 -167z"/>
<path d="M4041 2388 c-43 -105 -114 -286 -118 -300 -4 -14 1 -18 21 -18 20 0
30 8 43 35 l17 35 81 0 81 0 17 -35 c13 -27 23 -35 43 -35 31 0 34 -13 -43
185 l-58 150 -38 3 c-31 3 -39 -1 -46 -20z m64 -75 c10 -27 24 -63 32 -80 7
-18 14 -36 16 -40 1 -4 -28 -7 -66 -8 -37 0 -67 3 -67 7 0 4 11 36 24 70 13
35 27 71 30 81 8 25 11 22 31 -30z"/>
<path d="M4302 2243 l3 -168 100 0 c93 0 100 1 100 20 0 18 -7 20 -75 21 l-75
1 0 147 0 146 -28 0 -27 0 2 -167z"/>
<path d="M4550 2391 c0 -17 8 -20 51 -23 l51 -3 1 -145 c2 -142 3 -145 24
-148 22 -3 22 -2 25 145 l3 148 53 3 c44 3 52 6 52 23 0 18 -8 19 -130 19
-122 0 -130 -1 -130 -19z"/>
<path d="M4872 2243 c3 -165 3 -168 25 -171 21 -3 22 1 25 75 l3 78 94 0 94 0
1 -75 c1 -73 2 -75 26 -75 l25 0 3 168 2 167 -30 0 -31 0 2 -67 3 -68 -97 -3
-97 -3 0 71 c0 68 -1 70 -25 70 l-25 0 2 -167z"/>
<path d="M5643 2252 c-35 -86 -63 -163 -63 -170 0 -6 11 -12 25 -12 20 0 28 8
40 38 l15 37 84 -3 84 -3 9 -32 c7 -26 14 -32 36 -32 15 0 27 5 27 10 0 6 -28
81 -62 168 l-61 157 -36 0 -36 0 -62 -158z m114 76 c6 -18 20 -57 31 -85 11
-29 18 -54 16 -54 -20 -6 -124 -2 -124 5 0 16 55 166 61 166 3 0 10 -15 16
-32z"/>
<path d="M5962 2243 c3 -166 3 -168 26 -171 21 -3 22 0 22 61 0 35 2 66 5 69
3 2 19 2 36 0 26 -4 39 -16 71 -68 31 -50 46 -64 64 -64 13 0 24 3 24 8 0 4
-16 33 -35 65 -33 55 -44 84 -27 73 10 -6 35 14 56 46 25 38 14 89 -25 122
-28 24 -38 26 -125 26 l-94 0 2 -167z m183 113 c11 -8 18 -26 18 -46 0 -45
-24 -60 -95 -60 l-58 0 0 60 0 60 58 0 c33 0 66 -6 77 -14z"/>
<path d="M6290 2240 l0 -171 113 3 c104 3 112 4 112 23 0 18 -8 20 -87 23
l-88 3 0 52 0 52 85 -3 85 -3 0 25 c0 26 0 26 -84 26 l-84 0 -4 46 c-2 25 -1
47 1 50 2 2 44 4 93 4 81 0 88 2 88 20 0 19 -7 20 -115 20 l-115 0 0 -170z"/>
<path d="M6811 2393 c-16 -31 -121 -301 -121 -312 0 -6 11 -11 25 -11 19 0 28
8 39 35 l15 35 85 0 84 0 12 -35 c10 -30 16 -35 42 -35 20 0 28 4 25 13 -3 6
-33 83 -67 170 l-62 157 -34 0 c-22 0 -37 -6 -43 -17z m78 -117 c17 -44 28
-82 26 -84 -9 -9 -125 -8 -125 1 0 11 47 145 56 159 8 13 8 13 43 -76z"/>
<path d="M7072 2243 c3 -166 3 -168 26 -171 l22 -3 0 170 0 171 -25 0 -25 0 2
-167z"/>
<path d="M6590 2115 c-10 -12 -10 -18 0 -30 7 -8 18 -15 25 -15 7 0 18 7 25
15 10 12 10 18 0 30 -7 8 -18 15 -25 15 -7 0 -18 -7 -25 -15z"/>
</g>
</svg>
